<?xml version="1.0" encoding="UTF-8"?>
<!DOCTYPE svg PUBLIC "-//W3C//DTD SVG 1.1//EN" "http://www.w3.org/Graphics/SVG/1.1/DTD/svg11.dtd">
<svg xmlns="http://www.w3.org/2000/svg" style="background-color: #ffffff;"
    xmlns:xlink="http://www.w3.org/1999/xlink" version="1.1" width="750px" height="225px">
    <defs/>
    <g transform="translate(10,10)">
        <rect x="305" y="30" width="410" height="160" fill="#ffffff" stroke="#000000" />
        <path d="M 305 70 L 715 70" fill="none" stroke="#000000" stroke-miterlimit="10" />
        <path d="M 305 110 L 715 110" fill="none" stroke="#000000" stroke-miterlimit="10" />
        <path d="M 305 150 L 715 150" fill="none" stroke="#000000" stroke-miterlimit="10" />
        <path d="M 395 30 L 395 190" fill="none" stroke="#000000" stroke-miterlimit="10" />
        <path d="M 520 30 L 520 190" fill="none" stroke="#000000" stroke-miterlimit="10" />
        <path d="M 615 30 L 615 190" fill="none" stroke="#000000" stroke-miterlimit="10" />
        <path d="M 305 30 M 715 30 M 715 70 M 305 70" fill="none" stroke="#000000" stroke-miterlimit="10" />
        <path d="M 305 30 M 395 30 M 395 70 M 305 70" fill="none" stroke="#000000" stroke-miterlimit="10" />

        <text x="350" y="54" fill="#000000" font-family="Helvetica" font-size="14px" text-anchor="middle">LocationId</text>

        <path d="M 395 30 M 520 30 M 520 70 M 395 70" fill="none" stroke="#000000" stroke-miterlimit="10" />

        <text x="458" y="54" fill="#000000" font-family="Helvetica" font-size="14px" text-anchor="middle">Name</text>

        <path d="M 520 30 M 615 30 M 615 70 M 520 70" fill="none" stroke="#000000" stroke-miterlimit="10" />

        <text x="568" y="54" fill="#000000" font-family="Helvetica" font-size="14px" text-anchor="middle">City</text>

        <path d="M 615 30 M 715 30 M 715 70 M 615 70" fill="none" stroke="#000000" stroke-miterlimit="10" />

        <text x="665" y="54" fill="#000000" font-family="Helvetica" font-size="14px" text-anchor="middle">AgencyId</text>

        <path d="M 305 70 M 715 70 M 715 110 M 305 110" fill="none" stroke="#000000" stroke-miterlimit="10" />
        <path d="M 305 70 M 395 70 M 395 110 M 305 110" fill="none" stroke="#000000" stroke-miterlimit="10" />

        <text x="350" y="94" fill="#000000" font-family="Helvetica" font-size="14px" text-anchor="middle">1</text>

        <path d="M 395 70 M 520 70 M 520 110 M 395 110" fill="none" stroke="#000000" stroke-miterlimit="10" />

        <text x="458" y="94" fill="#000000" font-family="Helvetica" font-size="14px" text-anchor="middle">Headquarters</text>

        <path d="M 520 70 M 615 70 M 615 110 M 520 110" fill="none" stroke="#000000" stroke-miterlimit="10" />

        <text x="568" y="94" fill="#000000" font-family="Helvetica" font-size="14px" text-anchor="middle">New York</text>

        <path d="M 615 70 M 715 70 M 715 110 M 615 110" fill="none" stroke="#000000" stroke-miterlimit="10" />

        <text x="665" y="94" fill="#000000" font-family="Helvetica" font-size="14px" text-anchor="middle">1</text>

        <path d="M 305 110 M 715 110 M 715 150 M 305 150" fill="none" stroke="#000000" stroke-miterlimit="10" />
        <path d="M 305 110 M 395 110 M 395 150 M 305 150" fill="none" stroke="#000000" stroke-miterlimit="10" />

        <text x="350" y="134" fill="#000000" font-family="Helvetica" font-size="14px" text-anchor="middle">2</text>

        <path d="M 395 110 M 520 110 M 520 150 M 395 150" fill="none" stroke="#000000" stroke-miterlimit="10" />

        <text x="458" y="134" fill="#000000" font-family="Helvetica" font-size="14px" text-anchor="middle">Safe House #5</text>

        <path d="M 520 110 M 615 110 M 615 150 M 520 150" fill="none" stroke="#000000" stroke-miterlimit="10" />

        <text x="568" y="134" fill="#000000" font-family="Helvetica" font-size="14px" text-anchor="middle">Des Moines</text>

        <path d="M 615 110 M 715 110 M 715 150 M 615 150" fill="none" stroke="#000000" stroke-miterlimit="10" />

        <text x="665" y="134" fill="#000000" font-family="Helvetica" font-size="14px" text-anchor="middle">1</text>

        <path d="M 305 150 M 715 150 M 715 190 M 305 190" fill="none" stroke="#000000" stroke-miterlimit="10" />
        <path d="M 305 150 M 395 150 M 395 190 M 305 190" fill="none" stroke="#000000" stroke-miterlimit="10" />

        <text x="350" y="174" fill="#000000" font-family="Helvetica" font-size="14px" text-anchor="middle">3</text>

        <path d="M 395 150 M 520 150 M 520 190 M 395 190" fill="none" stroke="#000000" stroke-miterlimit="10" />

        <text x="458" y="174" fill="#000000" font-family="Helvetica" font-size="14px" text-anchor="middle">IA Spying Station</text>

        <path d="M 520 150 M 615 150 M 615 190 M 520 190" fill="none" stroke="#000000" stroke-miterlimit="10" />

        <text x="568" y="174" fill="#000000" font-family="Helvetica" font-size="14px" text-anchor="middle">Des Moines</text>

        <path d="M 615 150 M 715 150 M 715 190 M 615 190" fill="none" stroke="#000000" stroke-miterlimit="10" />

        <text x="665" y="174" fill="#000000" font-family="Helvetica" font-size="14px" text-anchor="middle">2</text>

        <rect x="5" y="30" width="170" height="110" fill="#ffffff" stroke="#000000" />
        <path d="M 5 67 L 175 67" fill="none" stroke="#000000" stroke-miterlimit="10" />
        <path d="M 5 103 L 175 103" fill="none" stroke="#000000" stroke-miterlimit="10" />
        <path d="M 81 30 L 81 140" fill="none" stroke="#000000" stroke-miterlimit="10" />
        <path d="M 5 30 M 175 30 M 175 67 M 5 67" fill="none" stroke="#000000" stroke-miterlimit="10" />
        <rect x="5" y="30" width="76" height="37" fill="none" stroke="none" />
        <path d="M 5 30 M 81 30 M 81 67 M 5 67" fill="none" stroke="#000000" stroke-miterlimit="10" />

        <text x="43" y="53" fill="#000000" font-family="Helvetica" font-size="14px" text-anchor="middle">AgencyId</text>

        <path d="M 81 30 M 175 30 M 175 67 M 81 67" fill="none" stroke="#000000" stroke-miterlimit="10" />

        <text x="128" y="53" fill="#000000" font-family="Helvetica" font-size="14px" text-anchor="middle">ShortName</text>

        <path d="M 5 67 M 175 67 M 175 103 M 5 103" fill="none" stroke="#000000" stroke-miterlimit="10" />
        <path d="M 5 67 M 81 67 M 81 103 M 5 103" fill="none" stroke="#000000" stroke-miterlimit="10" />

        <text x="43" y="89" fill="#000000" font-family="Helvetica" font-size="14px" text-anchor="middle">1</text>

        <path d="M 81 67 M 175 67 M 175 103 M 81 103" fill="none" stroke="#000000" stroke-miterlimit="10" />

        <text x="128" y="89" fill="#000000" font-family="Helvetica" font-size="14px" text-anchor="middle">CIA</text>

        <path d="M 5 103 M 175 103 M 175 140 M 5 140" fill="none" stroke="#000000" stroke-miterlimit="10" />
        <path d="M 5 103 M 81 103 M 81 140 M 5 140" fill="none" stroke="#000000" stroke-miterlimit="10" />

        <text x="43" y="126" fill="#000000" font-family="Helvetica" font-size="14px" text-anchor="middle">2</text>

        <path d="M 81 103 M 175 103 M 175 140 M 81 140" fill="none" stroke="#000000" stroke-miterlimit="10" />

        <text x="128" y="126" fill="#000000" font-family="Helvetica" font-size="14px" text-anchor="middle">MI6</text>

        <path d="M 175 85 L 298.98 127.92" fill="none" stroke="#000000" stroke-miterlimit="10"/>
        <path d="M 303.94 129.63 L 296.18 130.65 L 298.98 127.92 L 298.47 124.04 Z" fill="#000000" stroke="#000000" stroke-miterlimit="10" />
        <path d="M 175 121.5 L 299.03 167.77" fill="none" stroke="#000000" stroke-miterlimit="10"/>
        <path d="M 303.95 169.61 L 296.17 170.44 L 299.03 167.77 L 298.62 163.88 Z" fill="#000000" stroke="#000000" stroke-miterlimit="10" />
        <path d="M 175 85 L 298.64 89.76" fill="none" stroke="#000000" stroke-miterlimit="10"/>
        <path d="M 303.88 89.96 L 296.75 93.19 L 298.64 89.76 L 297.02 86.19 Z" fill="#000000" stroke="#000000" stroke-miterlimit="10" />

        <text x="25" y="14" fill="#000000" font-family="Helvetica" font-size="14px" text-anchor="middle" font-weight="bold">Agency</text>


        <text x="325" y="14" fill="#000000" font-family="Helvetica" font-size="14px" text-anchor="middle" font-weight="bold">Location</text>

    </g>

</svg>